HIERARCHY
ROOT Hips
{
	OFFSET -3.958830 18.904000 13.208200
	CHANNELS 6 Xposition Yposition Zposition Zrotation Yrotation Xrotation 
	JOINT LHipJoint
	{
		OFFSET 0.000000 0.000000 0.000000
		CHANNELS 3 Zrotation Yrotation Xrotation
		JOINT LeftUpLeg
		{
			OFFSET 1.800000 -1.400000 0.085000
			CHANNELS 3 Zrotation Yrotation Xrotation
			JOINT LeftLeg
			{
				OFFSET 2.215000 -6.000000 0.000000
				CHANNELS 3 Zrotation Yrotation Xrotation
				JOINT LeftFoot
				{
					OFFSET 2.500000 -6.900000 0.000000
					CHANNELS 3 Zrotation Yrotation Xrotation
					JOINT LeftToeBase
					{
						OFFSET 0.200000 -0.500000 1.950000
						CHANNELS 3 Zrotation Yrotation Xrotation
						End Site
						{
							OFFSET 0.000000 0.000000 0.000000
						}
					}
				}
			}
		}
	}
	JOINT RHipJoint
	{
		OFFSET 0.000000 0.000000 0.000000
		CHANNELS 3 Zrotation Yrotation Xrotation
		JOINT RightUpLeg
		{
			OFFSET -1.800000 -1.400000 0.085000
			CHANNELS 3 Zrotation Yrotation Xrotation
			JOINT RightLeg
			{
				OFFSET -2.215000 -6.000000 0.000000
				CHANNELS 3 Zrotation Yrotation Xrotation
				JOINT RightFoot
				{
					OFFSET -2.500000 -6.900000 0.000000
					CHANNELS 3 Zrotation Yrotation Xrotation
					JOINT RightToeBase
					{
						OFFSET -0.200000 -0.500000 1.950000
						CHANNELS 3 Zrotation Yrotation Xrotation
						End Site
						{
							OFFSET 0.000000 0.000000 0.000000
						}
					}
				}
			}
		}
	}
	JOINT LowerBack
	{
		OFFSET 0.000000 0.000000 0.000000
		CHANNELS 3 Zrotation Yrotation Xrotation
		JOINT Spine
		{
			OFFSET -0.087000 1.940000 -0.288900
			CHANNELS 3 Zrotation Yrotation Xrotation
			JOINT Spine1
			{
				OFFSET 0.000000 1.950000 0.060000
				CHANNELS 3 Zrotation Yrotation Xrotation
				JOINT Neck
				{
					OFFSET 0.000000 0.000000 0.000000
					CHANNELS 3 Zrotation Yrotation Xrotation
					JOINT Neck1
					{
						OFFSET 0.000000 1.600000 0.340000
						CHANNELS 3 Zrotation Yrotation Xrotation
						JOINT Head
						{
							OFFSET 0.000000 1.667000 -0.240000
							CHANNELS 3 Zrotation Yrotation Xrotation
							End Site
							{
								OFFSET 0.000000 0.000000 0.000000
							}
						}
					}
				}
				JOINT LeftShoulder
				{
					OFFSET 0.000000 0.000000 0.000000
					CHANNELS 3 Zrotation Yrotation Xrotation
					JOINT LeftArm
					{
						OFFSET 2.700000 1.550000 -0.730000
						CHANNELS 3 Zrotation Yrotation Xrotation
						JOINT LeftForeArm
						{
							OFFSET 5.450000 0.000000 0.000000
							CHANNELS 3 Zrotation Yrotation Xrotation
							JOINT LeftHand
							{
								OFFSET 3.450000 0.000000 0.000000
								CHANNELS 3 Zrotation Yrotation Xrotation
								JOINT LeftHandIndex1
								{
									OFFSET 0.750000 0.000000 0.000000
									CHANNELS 3 Zrotation Yrotation Xrotation
									End Site
									{
										OFFSET 0.000000 0.000000 0.000000
									}
								}
							}
						}
					}
				}
				JOINT RightShoulder
				{
					OFFSET 0.000000 0.000000 0.000000
					CHANNELS 3 Zrotation Yrotation Xrotation
					JOINT RightArm
					{
						OFFSET -2.700000 1.550000 -0.730000
						CHANNELS 3 Zrotation Yrotation Xrotation
						JOINT RightForeArm
						{
							OFFSET -5.450000 0.000000 0.000000
							CHANNELS 3 Zrotation Yrotation Xrotation
							JOINT RightHand
							{
								OFFSET -3.450000 0.000000 0.000000
								CHANNELS 3 Zrotation Yrotation Xrotation
								JOINT RightHandIndex1
								{
									OFFSET -0.750000 0.000000 0.000000
									CHANNELS 3 Zrotation Yrotation Xrotation
									End Site
									{
										OFFSET 0.000000 0.000000 0.000000
									}
								}
							}
						}
					}
				}
			}
		}
	}
}
MOTION
Frames: 12
Frame Time: 0.016667
1.474780 17.632110 -1.630950 -1.676853 15.613862 4.237681 -15.426646 13.745102 3.244490 8.709650 -2.424631 -20.600012 -9.060302 6.426516 13.307177 -0.543112 4.205118 3.041053 -0.170980 -0.303760 -0.065010 17.935042 -10.746667 2.046061 -11.002750 1.030442 -16.054737 1.931649 -4.184280 16.299309 0.275350 -3.176454 3.245299 0.030080 0.447740 -0.036020 -3.001212 -3.292523 -6.866522 2.526798 1.281121 7.800913 3.082430 1.641005 6.277561 -2.084719 -7.841698 -6.829196 -18.024718 13.544149 30.941688 -4.171750 11.744360 1.762540 -7.190584 8.958320 3.003762 -37.096129 3.148384 -8.609423 49.975214 -70.581208 -34.374072 -3.668481 2.501347 0.151570 0.303590 -0.321230 -0.023740 11.254376 -2.589120 1.677673 39.520042 -6.409044 -14.594886 -51.267242 41.459474 -16.736534 2.068855 -1.419970 -0.457760 0.225050 0.243490 -0.126840 
1.477580 17.629700 -1.628640 -1.643005 15.658183 4.515665 -15.442183 13.752854 3.240177 8.477264 -2.470002 -20.566998 -8.846913 6.278248 12.911163 -0.558104 4.159625 3.068515 -0.190440 -0.329460 -0.082360 17.924676 -10.724870 2.043802 -10.985827 1.092057 -16.461112 1.963885 -4.202898 16.580169 0.296237 -3.189910 3.239920 0.024980 0.474230 -0.033860 -2.959769 -3.341142 -6.842493 2.125595 1.179199 7.455173 3.077001 1.474553 6.124774 -2.036680 -7.697226 -6.730018 -17.524072 13.701578 30.493400 -4.025740 12.019650 2.440980 -7.756419 8.520414 2.810955 -37.045937 2.170953 -8.292145 53.506314 -66.329528 -33.746151 -3.709625 2.448387 0.134900 0.326560 -0.347850 -0.024680 11.786331 -2.307943 1.724180 39.667863 -6.117298 -14.526094 -51.907454 41.472490 -17.114931 2.059526 -1.429642 -0.470430 0.222110 0.257620 -0.127020 
1.479860 17.626590 -1.624370 -1.528972 15.620169 4.833735 -15.453446 13.754162 3.234835 8.181047 -2.527747 -20.545925 -8.656057 6.142840 12.581310 -0.574571 4.122035 3.093319 -0.198580 -0.347620 -0.093120 17.920078 -10.704377 2.039633 -11.030249 1.158178 -16.901693 1.962877 -4.207076 16.846035 0.313094 -3.199853 3.230353 0.025600 0.500420 -0.029070 -2.931224 -3.377192 -6.810945 1.752535 1.061394 7.085656 2.964497 1.327182 5.981485 -2.055340 -7.641132 -6.612006 -17.202372 13.931576 29.897717 -3.596680 12.102980 2.976970 -8.126066 8.336468 2.700985 -37.383342 1.115924 -7.756603 58.999491 -61.886615 -34.396139 -3.760530 2.399078 0.121070 0.344280 -0.372600 -0.021450 12.231917 -2.202151 1.658293 39.938824 -5.703555 -14.490685 -52.431493 41.822406 -17.574110 2.044420 -1.436914 -0.481220 0.220700 0.268360 -0.126130 
1.485970 17.623880 -1.619670 -1.458726 15.549228 5.097980 -15.452607 13.750460 3.226795 7.920108 -2.567604 -20.521141 -8.487242 6.034877 12.350746 -0.583551 4.087406 3.115583 -0.204200 -0.355620 -0.106540 17.926380 -10.692859 2.038801 -11.082088 1.216964 -17.299960 1.968215 -4.213293 17.083278 0.324594 -3.208080 3.220593 0.028840 0.523630 -0.027230 -2.938269 -3.386211 -6.785555 1.715024 0.879287 6.832758 2.616525 1.174895 5.772866 -2.067027 -7.723182 -6.528478 -17.208346 14.241078 29.274163 -3.128290 12.117210 3.368600 -8.420114 8.323312 2.637153 -37.964946 0.067721 -7.063008 65.202274 -57.328702 -35.613855 -3.828409 2.393913 0.107190 0.356110 -0.390920 -0.015720 12.556493 -2.188771 1.556190 40.287448 -5.259587 -14.490985 -52.780782 42.456802 -18.058915 2.028778 -1.434506 -0.487920 0.223050 0.275580 -0.119470 
1.494380 17.618390 -1.612770 -1.419700 15.426330 5.342836 -15.444857 13.743176 3.212897 7.681033 -2.590725 -20.501720 -8.310440 5.946657 12.205381 -0.590160 4.061688 3.134965 -0.212350 -0.363080 -0.128510 17.940588 -10.684695 2.038382 -11.118563 1.277112 -17.670643 1.968173 -4.219776 17.304393 0.337900 -3.220165 3.213480 0.032460 0.553250 -0.025710 -2.966558 -3.380241 -6.754002 1.882891 0.689958 6.555500 2.181490 1.044612 5.599369 -2.113479 -7.892357 -6.469257 -17.415301 14.586830 28.568476 -2.561360 12.012680 3.809460 -8.472792 8.447944 2.609332 -38.815268 -1.059390 -6.306185 71.164212 -52.716655 -36.795964 -3.916725 2.453494 0.088960 0.371100 -0.412620 -0.008080 12.687459 -2.267632 1.441643 40.681850 -4.861276 -14.543406 -52.927728 43.418568 -18.581992 2.005063 -1.424892 -0.493660 0.228800 0.286030 -0.108310 
1.503550 17.612360 -1.606030 -1.344170 15.286682 5.528185 -15.437541 13.752481 3.201682 7.370489 -2.602884 -20.451680 -8.064143 5.846982 12.097911 -0.590872 4.021958 3.155850 -0.221080 -0.367560 -0.153440 17.950617 -10.682710 2.037883 -11.158237 1.331493 -18.019378 1.881518 -4.219144 17.613882 0.348752 -3.229670 3.208956 0.033540 0.575980 -0.023440 -2.990581 -3.393846 -6.734615 2.079624 0.506055 6.453880 1.715986 0.939030 5.303729 -2.147395 -8.134520 -6.464212 -17.858709 14.903353 27.945794 -2.045150 11.837800 4.169940 -8.368638 8.653913 2.555570 -39.669041 -2.203079 -5.605889 76.560986 -48.161427 -37.568374 -3.997771 2.553784 0.072660 0.381090 -0.427000 -0.000990 12.640149 -2.383752 1.387763 41.062080 -4.668603 -14.709670 -52.817584 44.928490 -19.187110 1.975219 -1.400363 -0.493490 0.232000 0.295130 -0.094470 
1.514040 17.605200 -1.599240 -1.283657 15.123717 5.724212 -15.424125 13.751035 3.190811 7.087639 -2.621904 -20.459259 -7.875226 5.771225 12.050891 -0.591508 3.994447 3.175141 -0.221080 -0.362270 -0.175380 17.969619 -10.684594 2.032538 -11.119069 1.398558 -18.408616 1.618049 -4.168097 17.978944 0.358812 -3.234336 3.207184 0.041790 0.604420 -0.021280 -3.035383 -3.386029 -6.706140 2.417163 0.279850 6.317603 1.177963 0.806892 5.021079 -2.268355 -8.408755 -6.402235 -18.336523 15.295767 27.151827 -1.373460 11.592770 4.478020 -8.203892 8.902767 2.450552 -40.227704 -3.201984 -5.035461 81.334355 -43.740997 -37.730095 -4.068378 2.674599 0.051750 0.393330 -0.444570 0.011600 12.676972 -2.540072 1.288283 41.272692 -4.508107 -14.849155 -52.471955 46.343360 -19.661718 1.944654 -1.384244 -0.492270 0.240400 0.300820 -0.078180 
1.524470 17.598880 -1.593380 -1.229074 14.854231 5.864373 -15.409818 13.754855 3.183455 6.862898 -2.631929 -20.465795 -7.742116 5.733750 12.116780 -0.595745 3.986342 3.183687 -0.220630 -0.357250 -0.195450 17.987716 -10.689312 2.028121 -11.033552 1.475907 -18.800348 1.230752 -4.084146 18.387975 0.365201 -3.230033 3.202757 0.050670 0.629220 -0.019100 -3.078846 -3.382422 -6.686955 2.748406 0.087217 6.300145 0.698131 0.709800 4.704002 -2.433511 -8.701001 -6.376879 -18.902618 15.697859 26.417416 -0.654170 11.285000 4.587660 -7.972527 9.066817 2.340276 -40.361367 -4.010544 -4.622808 85.235200 -39.546893 -37.098352 -4.118529 2.787404 0.039850 0.399240 -0.456650 0.021490 12.737672 -2.592800 1.235282 41.339290 -4.434608 -15.009293 -51.890877 47.503901 -19.930011 1.920590 -1.368032 -0.493390 0.251720 0.309180 -0.063340 
1.537170 17.592340 -1.587570 -1.157051 14.458090 5.963766 -15.394847 13.762416 3.173631 6.604803 -2.633805 -20.426002 -7.599226 5.717710 12.292934 -0.611383 3.995163 3.186312 -0.222240 -0.358340 -0.214070 18.005343 -10.699501 2.025600 -10.944751 1.562962 -19.202635 0.763414 -3.981616 18.828285 0.374170 -3.228055 3.199806 0.061140 0.655360 -0.018330 -3.120527 -3.372485 -6.670015 3.035289 -0.052798 6.332213 0.295861 0.653528 4.380782 -2.633752 -8.955086 -6.342158 -19.389157 16.061559 25.710911 -0.055580 11.022470 4.628300 -7.730123 9.151978 2.201276 -39.835821 -4.607995 -4.300556 88.360331 -35.716445 -35.828129 -4.161051 2.877219 0.034450 0.408180 -0.471590 0.028900 12.860069 -2.582322 1.206823 41.250754 -4.416371 -15.172374 -51.597361 48.748250 -20.370464 1.886802 -1.345367 -0.502970 0.266940 0.321430 -0.054990 
1.550300 17.586270 -1.583560 -1.029846 14.005471 6.015558 -15.383672 13.772750 3.169862 6.337039 -2.631841 -20.320975 -7.549932 5.721436 12.432256 -0.631670 4.013959 3.184525 -0.225680 -0.362620 -0.228970 18.017721 -10.708217 2.022638 -10.903489 1.641587 -19.571838 0.284179 -3.873597 19.247709 0.382460 -3.224896 3.196899 0.071580 0.676780 -0.022340 -3.147615 -3.372970 -6.662013 3.173516 -0.148697 6.427465 0.027953 0.623522 4.085838 -2.863478 -9.150637 -6.324116 -19.806672 16.372053 25.206717 0.424430 10.825770 4.596960 -7.458273 9.109128 2.069461 -38.686469 -5.034165 -4.070573 90.557767 -32.336778 -34.017783 -4.193542 2.942104 0.035780 0.414160 -0.485190 0.032680 13.022497 -2.467268 1.203795 41.003204 -4.364804 -15.252749 -51.196204 49.472645 -20.549141 1.862337 -1.328582 -0.518250 0.285130 0.335010 -0.052330 
1.563890 17.579360 -1.580570 -0.951506 13.544819 6.010043 -15.371420 13.784183 3.167473 6.124194 -2.627326 -20.224963 -7.518984 5.743011 12.624083 -0.657291 4.040279 3.178523 -0.225650 -0.363680 -0.236200 18.030542 -10.718006 2.021705 -10.786037 1.724494 -19.918653 -0.255580 -3.746112 19.687651 0.389423 -3.219541 3.197106 0.084640 0.693380 -0.029860 -3.176810 -3.373389 -6.659390 3.327002 -0.248110 6.593390 -0.156154 0.580705 3.786288 -3.134352 -9.315156 -6.293743 -20.177085 16.650974 24.767596 0.776930 10.705420 4.410030 -7.150162 9.026226 1.941176 -37.079643 -5.307610 -3.893273 92.002281 -29.438730 -31.942720 -4.220842 2.983629 0.041910 0.418820 -0.497080 0.033720 13.227999 -2.336202 1.183042 40.630517 -4.277802 -15.248563 -50.837938 49.832259 -20.584112 1.842760 -1.316282 -0.536320 0.306100 0.346600 -0.054860 
1.578740 17.574560 -1.579450 -0.899470 13.157112 5.896892 -15.362582 13.807941 3.167859 5.928240 -2.625273 -20.119557 -7.448475 5.776738 12.928933 -0.684234 4.072016 3.165257 -0.222470 -0.369170 -0.228430 18.036471 -10.730465 2.023284 -10.635642 1.796114 -20.162530 -0.788516 -3.627367 20.146376 0.389447 -3.215483 3.192365 0.092050 0.694860 -0.033400 -3.193713 -3.391365 -6.669771 3.409759 -0.348166 6.893471 -0.184923 0.512187 3.531586 -3.378955 -9.432790 -6.315578 -20.502169 16.832399 24.580581 0.871850 10.703060 4.064560 -6.909643 8.811291 1.877917 -35.014194 -5.146742 -3.861976 92.859114 -27.371081 -30.176233 -4.237715 3.004067 0.059580 0.415640 -0.499330 0.028120 13.468816 -2.092669 1.198695 40.144764 -4.198757 -15.207146 -50.520297 49.761773 -20.443084 1.834758 -1.308948 -0.552250 0.319050 0.356010 -0.066190 
